<svg xmlns="http://www.w3.org/2000/svg" viewBox="0 0 760 150" role="img" aria-label="straight bamboo tea presentation trough">
  <defs>
    <linearGradient id="outerBamboo" x1="58" y1="76" x2="736" y2="76" gradientUnits="userSpaceOnUse">
      <stop offset="0" stop-color="#805033"/>
      <stop offset=".18" stop-color="#c49060"/>
      <stop offset=".52" stop-color="#9e6740"/>
      <stop offset=".78" stop-color="#d0a06b"/>
      <stop offset="1" stop-color="#704426"/>
    </linearGradient>
    <linearGradient id="innerBamboo" x1="96" y1="76" x2="696" y2="76" gradientUnits="userSpaceOnUse">
      <stop offset="0" stop-color="#c89361"/>
      <stop offset=".18" stop-color="#b57c4d"/>
      <stop offset=".5" stop-color="#7f4d2d"/>
      <stop offset=".8" stop-color="#b98150"/>
      <stop offset="1" stop-color="#5c321a"/>
    </linearGradient>
    <linearGradient id="rimLight" x1="66" y1="30" x2="735" y2="30" gradientUnits="userSpaceOnUse">
      <stop offset="0" stop-color="#f0c891" stop-opacity=".72"/>
      <stop offset=".52" stop-color="#f8d8a5" stop-opacity=".38"/>
      <stop offset="1" stop-color="#f0c891" stop-opacity=".58"/>
    </linearGradient>
    <radialGradient id="innerShade" cx="50%" cy="44%" r="72%">
      <stop offset="0" stop-color="#ecc18b" stop-opacity=".24"/>
      <stop offset=".58" stop-color="#6f4024" stop-opacity=".18"/>
      <stop offset="1" stop-color="#2b1409" stop-opacity=".38"/>
    </radialGradient>
    <filter id="softShadow" x="-10%" y="-55%" width="120%" height="210%">
      <feDropShadow dx="0" dy="11" stdDeviation="8" flood-color="#050302" flood-opacity=".38"/>
    </filter>
    <clipPath id="innerClip">
      <path d="M96 76 C103 52 130 40 166 40 L630 40 C667 40 690 53 696 76 C690 99 665 111 630 111 L166 111 C129 111 103 99 96 76 Z"/>
    </clipPath>
  </defs>

  <ellipse cx="386" cy="124" rx="260" ry="18" fill="#050302" opacity=".23"/>
  <g filter="url(#softShadow)">
    <path d="M54 76 C62 38 100 18 154 18 L646 18 C700 18 728 42 736 76 L736 84 C724 116 695 134 646 134 L154 134 C101 134 63 114 54 82 Z" fill="url(#outerBamboo)"/>
    <path d="M76 76 C86 48 116 32 158 32 L642 32 C676 32 700 48 708 76 L708 83 C696 105 668 119 626 119 L158 119 C116 119 88 105 76 80 Z" fill="#432311" opacity=".52"/>
    <path d="M96 76 C103 52 130 40 166 40 L630 40 C667 40 690 53 696 76 C690 99 665 111 630 111 L166 111 C129 111 103 99 96 76 Z" fill="url(#innerBamboo)"/>
    <path d="M96 76 C103 52 130 40 166 40 L630 40 C667 40 690 53 696 76 C690 99 665 111 630 111 L166 111 C129 111 103 99 96 76 Z" fill="url(#innerShade)"/>

    <g clip-path="url(#innerClip)" fill="none" stroke-linecap="round">
      <path d="M112 62 C240 54 506 54 662 62" stroke="#f4cc95" stroke-width="2.1" opacity=".25"/>
      <path d="M110 89 C260 82 502 82 654 89" stroke="#512a15" stroke-width="2.1" opacity=".32"/>
      <path d="M142 101 C304 96 462 96 618 101" stroke="#e4b178" stroke-width="1.3" opacity=".2"/>
      <path d="M170 48 C204 68 204 88 170 109" stroke="#f1c58e" stroke-width="1.1" opacity=".15"/>
      <path d="M626 44 C596 64 596 89 626 108" stroke="#341a0c" stroke-width="1.2" opacity=".22"/>
      <path d="M192 59 C332 53 480 53 620 59" stroke="#f8d7a6" stroke-width="1" opacity=".17"/>
      <path d="M190 105 C332 100 480 100 616 105" stroke="#351a0c" stroke-width="1" opacity=".18"/>
    </g>

    <path d="M66 75 C76 36 110 18 154 18 L646 18 C690 18 724 36 735 75" fill="none" stroke="url(#rimLight)" stroke-width="5" stroke-linecap="round" opacity=".68"/>
    <path d="M82 76 C91 48 120 32 158 32 L642 32 C674 32 700 48 708 76" fill="none" stroke="#2f170b" stroke-width="4.6" stroke-linecap="round" opacity=".25"/>
    <path d="M64 88 C84 118 116 134 154 134 L646 134 C688 134 718 118 736 88" fill="none" stroke="#2b1408" stroke-width="5" stroke-linecap="round" opacity=".24"/>
    <path d="M646 28 C658 45 662 66 656 86 C652 103 642 120 626 132" fill="none" stroke="#f0c48b" stroke-width="3" stroke-linecap="round" opacity=".34"/>
  </g>
</svg>
